<?xml version="1.0" encoding="UTF-8" standalone="no"?>
<!-- Created with Inkscape (http://www.inkscape.org/) -->

<svg
   xmlns:dc="http://purl.org/dc/elements/1.1/"
   xmlns:cc="http://creativecommons.org/ns#"
   xmlns:rdf="http://www.w3.org/1999/02/22-rdf-syntax-ns#"
   xmlns:svg="http://www.w3.org/2000/svg"
   xmlns="http://www.w3.org/2000/svg"
   xmlns:sodipodi="http://sodipodi.sourceforge.net/DTD/sodipodi-0.dtd"
   xmlns:inkscape="http://www.inkscape.org/namespaces/inkscape"
   id="svg2"
   version="1.1"
   inkscape:version="0.91 r13725"
   width="275"
   height="275"
   viewBox="0 0 275 275"
   sodipodi:docname="no-image.svg">
  <metadata
     id="metadata8">
    <rdf:RDF>
      <cc:Work
         rdf:about="">
        <dc:format>image/svg+xml</dc:format>
        <dc:type
           rdf:resource="http://purl.org/dc/dcmitype/StillImage" />
        <dc:title />
      </cc:Work>
    </rdf:RDF>
  </metadata>
  <defs
     id="defs6" />
  <sodipodi:namedview
     pagecolor="#ffffff"
     bordercolor="#666666"
     borderopacity="1"
     objecttolerance="10"
     gridtolerance="10"
     guidetolerance="10"
     inkscape:pageopacity="1"
     inkscape:pageshadow="2"
     inkscape:window-width="1920"
     inkscape:window-height="1147"
     id="namedview4"
     showgrid="false"
     inkscape:zoom="2.5345455"
     inkscape:cx="-39.260157"
     inkscape:cy="123.42491"
     inkscape:window-x="0"
     inkscape:window-y="0"
     inkscape:window-maximized="1"
     inkscape:current-layer="layer1" />
  <g
     inkscape:groupmode="layer"
     id="layer1"
     inkscape:label="Layer 1"
     style="display:inline">
    <rect
       style="fill:#ececec;fill-opacity:1;stroke:none;stroke-width:4;stroke-miterlimit:4;stroke-dasharray:none;stroke-opacity:1"
       id="rect4155"
       width="275"
       height="275"
       x="0"
       y="-1.0658141e-14" />
    <g
       style="font-style:normal;font-variant:normal;font-weight:bold;font-stretch:normal;font-size:40px;line-height:100%;font-family:'Liberation Sans';-inkscape-font-specification:'Liberation Sans, Bold';text-align:center;letter-spacing:0px;word-spacing:0px;writing-mode:lr-tb;text-anchor:middle;fill:#999999;fill-opacity:1;stroke:none;stroke-width:1px;stroke-linecap:butt;stroke-linejoin:miter;stroke-opacity:1"
       id="text3356">
      <path
         d="m 56.103516,200.65147 -11.992188,-21.1914 q 0.09766,0.85937 0.175781,1.71875 0.07813,0.74219 0.117188,1.60156 0.05859,0.85938 0.05859,1.64063 l 0,16.23046 -5.117188,0 0,-27.51953 6.582031,0 12.167969,21.36719 q -0.09766,-0.82031 -0.175781,-1.71875 -0.07813,-0.76172 -0.136719,-1.71875 -0.03906,-0.95703 -0.03906,-1.93359 l 0,-15.9961 5.117187,0 0,27.51953 -6.757812,0 z"
         style="fill:#999999"
         id="path4308" />
      <path
         d="m 95.009766,186.76476 q 0,3.22265 -0.957032,5.85937 -0.957031,2.63672 -2.753906,4.51172 -1.796875,1.875 -4.394531,2.89062 -2.578125,1.01563 -5.839844,1.01563 -3.457031,0 -6.054687,-1.05469 -2.578125,-1.07422 -4.316407,-2.96875 -1.738281,-1.91406 -2.617187,-4.53125 -0.859375,-2.61719 -0.859375,-5.72265 0,-3.22266 0.898437,-5.82032 0.917969,-2.59765 2.675782,-4.41406 1.777343,-1.83594 4.355468,-2.8125 2.597657,-0.99609 5.957032,-0.99609 3.359375,0 5.9375,0.99609 2.597656,0.99609 4.355468,2.83203 1.777344,1.83594 2.695313,4.4336 0.917969,2.57812 0.917969,5.78125 z m -5.878907,0 q 0,-2.16797 -0.527343,-3.90625 -0.507813,-1.75782 -1.523438,-3.00782 -1.015625,-1.25 -2.519531,-1.91406 -1.484375,-0.68359 -3.457031,-0.68359 -2.011719,0 -3.535157,0.68359 -1.503906,0.66406 -2.519531,1.91406 -1.015625,1.25 -1.523437,3.00782 -0.507813,1.73828 -0.507813,3.90625 0,2.14843 0.507813,3.94531 0.527343,1.77734 1.542968,3.0664 1.015625,1.28907 2.519532,2.01172 1.503906,0.72266 3.476562,0.72266 2.109375,0 3.632813,-0.72266 1.523437,-0.74218 2.5,-2.03125 0.996093,-1.30859 1.464843,-3.08593 0.46875,-1.79688 0.46875,-3.90625 z"
         style="fill:#999999"
         id="path4310" />
      <path
         d="m 110.43945,200.65147 0,-27.51953 5.76172,0 0,27.51953 -5.76172,0 z"
         style="fill:#999999"
         id="path4312" />
      <path
         d="m 144.38477,200.65147 0,-16.67968 q 0,-0.9961 0.0195,-2.05078 0.0391,-1.05469 0.0781,-1.9336 0.0586,-1.03515 0.0977,-2.01172 -0.41016,1.54297 -0.78125,2.92969 -0.15625,0.58594 -0.33203,1.21094 -0.17578,0.625 -0.35157,1.21094 -0.15625,0.58593 -0.3125,1.09375 -0.15625,0.50781 -0.27343,0.8789 l -4.96094,15.35156 -4.10156,0 -4.96094,-15.35156 q -0.11719,-0.37109 -0.27344,-0.8789 -0.13672,-0.50782 -0.3125,-1.09375 -0.15625,-0.58594 -0.33203,-1.21094 -0.17578,-0.625 -0.35156,-1.21094 -0.39063,-1.38672 -0.82031,-2.92969 0.0586,1.13282 0.11718,2.22657 0.0391,0.9375 0.0781,1.97265 0.0391,1.03516 0.0391,1.79688 l 0,16.67968 -5.11719,0 0,-27.51953 7.71485,0 4.92187,15.39063 q 0.19531,0.60547 0.41016,1.48437 0.23437,0.87891 0.44922,1.69922 0.23437,0.95703 0.50781,1.99219 0.27344,-1.01563 0.52734,-1.95313 0.11719,-0.41015 0.23438,-0.83984 0.11719,-0.42969 0.23437,-0.83984 0.11719,-0.41016 0.23438,-0.78125 0.11719,-0.3711 0.21484,-0.66407 l 4.84375,-15.48828 7.67578,0 0,27.51953 -5.11718,0 z"
         style="fill:#999999"
         id="path4314" />
      <path
         d="m 174.3457,200.65147 -2.4414,-7.03125 -10.48828,0 -2.44141,7.03125 -5.76172,0 10.03906,-27.51953 6.79688,0 10,27.51953 -5.70313,0 z m -6.44531,-19.27734 q -0.23437,-0.68359 -0.46875,-1.36719 -0.21484,-0.70312 -0.39062,-1.26953 -0.15625,-0.58594 -0.27344,-0.95703 -0.0977,-0.37109 -0.11719,-0.41016 -0.0195,0.0586 -0.11719,0.42969 -0.0976,0.3711 -0.27343,0.9375 -0.15625,0.56641 -0.39063,1.26953 -0.21484,0.6836 -0.44922,1.36719 l -2.71484,7.91016 7.91015,0 -2.71484,-7.91016 z"
         style="fill:#999999"
         id="path4316" />
      <path
         d="m 196.86523,196.53038 q 1.25,0 2.40235,-0.19531 1.15234,-0.19531 2.1289,-0.50781 0.9961,-0.33204 1.77735,-0.74219 0.80078,-0.42969 1.30859,-0.87891 l 0,-3.80859 -6.71875,0 0,-4.25781 11.99219,0 0,10.11718 q -0.9375,0.95703 -2.26563,1.83594 -1.32812,0.85938 -2.98828,1.52344 -1.66015,0.64453 -3.63281,1.03515 -1.95312,0.39063 -4.16016,0.39063 -3.65234,0 -6.28906,-1.05469 -2.63672,-1.07422 -4.33594,-2.96875 -1.69921,-1.91406 -2.51953,-4.53125 -0.80078,-2.61719 -0.80078,-5.72265 0,-3.22266 0.85938,-5.82032 0.85937,-2.59765 2.59765,-4.41406 1.75782,-1.83594 4.39453,-2.8125 2.65625,-0.99609 6.23047,-0.99609 2.59766,0 4.60938,0.50781 2.03125,0.50781 3.53515,1.44531 1.52344,0.9375 2.53907,2.26563 1.03515,1.30859 1.64062,2.94922 l -5.3125,1.60156 q -0.35156,-0.85938 -0.9375,-1.6211 -0.58594,-0.78125 -1.46484,-1.34765 -0.85938,-0.58594 -2.01172,-0.91797 -1.13281,-0.35156 -2.59766,-0.35156 -2.14843,0 -3.71093,0.68359 -1.5625,0.66406 -2.57813,1.91406 -1.01562,1.25 -1.50391,3.00782 -0.48828,1.73828 -0.48828,3.90625 0,2.14843 0.48828,3.94531 0.50782,1.79687 1.52344,3.08594 1.03516,1.28906 2.59766,2.01171 1.5625,0.72266 3.6914,0.72266 z"
         style="fill:#999999"
         id="path4318" />
      <path
         d="m 214.89258,200.65147 0,-27.51953 21.64062,0 0,4.45313 -15.8789,0 0,6.91406 14.6875,0 0,4.45313 -14.6875,0 0,7.24609 16.67968,0 0,4.45312 -22.4414,0 z"
         style="fill:#999999"
         id="path4320" />
      <path
         d="m 48.369141,240.65147 -2.441407,-7.03125 -10.488281,0 -2.441406,7.03125 -5.761719,0 10.039063,-27.51953 6.796875,0 10,27.51953 -5.703125,0 z m -6.445313,-19.27734 q -0.234375,-0.68359 -0.46875,-1.36719 -0.214844,-0.70312 -0.390625,-1.26953 -0.15625,-0.58594 -0.273437,-0.95703 -0.09766,-0.37109 -0.117188,-0.41016 -0.01953,0.0586 -0.117187,0.42969 -0.09766,0.3711 -0.273438,0.9375 -0.15625,0.56641 -0.390625,1.26953 -0.214844,0.6836 -0.449219,1.36719 l -2.714843,7.91016 7.910156,0 -2.714844,-7.91016 z"
         style="fill:#999999"
         id="path4322" />
      <path
         d="m 68.466797,240.65147 -5.839844,0 -10.175781,-27.51953 6.015625,0 5.664062,17.67578 q 0.273438,0.87891 0.527344,1.79688 0.253906,0.91797 0.46875,1.67969 0.234375,0.89843 0.449219,1.71875 0.195312,-0.80078 0.410156,-1.67969 0.195313,-0.74219 0.449219,-1.66016 0.273437,-0.9375 0.546875,-1.85547 l 5.644531,-17.67578 5.957031,0 -10.117187,27.51953 z"
         style="fill:#999999"
         id="path4324" />
      <path
         d="m 98.056641,240.65147 -2.441407,-7.03125 -10.488281,0 -2.441406,7.03125 -5.761719,0 10.039063,-27.51953 6.796875,0 10.000004,27.51953 -5.703129,0 z m -6.445313,-19.27734 q -0.234375,-0.68359 -0.46875,-1.36719 -0.214844,-0.70312 -0.390625,-1.26953 -0.15625,-0.58594 -0.273437,-0.95703 -0.09766,-0.37109 -0.117188,-0.41016 -0.01953,0.0586 -0.117187,0.42969 -0.09766,0.3711 -0.273438,0.9375 -0.15625,0.56641 -0.390625,1.26953 -0.214844,0.6836 -0.449219,1.36719 l -2.714843,7.91016 7.910156,0 -2.714844,-7.91016 z"
         style="fill:#999999"
         id="path4326" />
      <path
         d="m 107.50977,240.65147 0,-27.51953 5.76171,0 0,27.51953 -5.76171,0 z"
         style="fill:#999999"
         id="path4328" />
      <path
         d="m 118.60352,240.65147 0,-27.51953 5.76171,0 0,23.06641 14.76563,0 0,4.45312 -20.52734,0 z"
         style="fill:#999999"
         id="path4330" />
      <path
         d="m 162.50977,240.65147 -2.44141,-7.03125 -10.48828,0 -2.44141,7.03125 -5.76172,0 10.03907,-27.51953 6.79687,0 10,27.51953 -5.70312,0 z m -6.44532,-19.27734 q -0.23437,-0.68359 -0.46875,-1.36719 -0.21484,-0.70312 -0.39062,-1.26953 -0.15625,-0.58594 -0.27344,-0.95703 -0.0977,-0.37109 -0.11719,-0.41016 -0.0195,0.0586 -0.11718,0.42969 -0.0977,0.3711 -0.27344,0.9375 -0.15625,0.56641 -0.39063,1.26953 -0.21484,0.6836 -0.44922,1.36719 l -2.71484,7.91016 7.91016,0 -2.71485,-7.91016 z"
         style="fill:#999999"
         id="path4332" />
      <path
         d="m 196.35742,232.79991 q 0,2.08985 -0.83984,3.59375 -0.83985,1.48438 -2.30469,2.44141 -1.44531,0.9375 -3.37891,1.38672 -1.93359,0.42968 -4.10156,0.42968 l -13.76953,0 0,-27.51953 12.59766,0 q 2.4414,0 4.33593,0.42969 1.91407,0.41016 3.22266,1.26953 1.30859,0.85938 1.97266,2.16797 0.68359,1.28906 0.68359,3.04688 0,2.34375 -1.30859,3.96484 -1.28907,1.60156 -3.94532,2.16797 3.33985,0.39062 5.07813,2.10937 1.75781,1.69922 1.75781,4.51172 z m -7.38281,-11.97265 q 0,-1.85547 -1.19141,-2.63672 -1.17187,-0.78125 -3.49609,-0.78125 l -6.5625,0 0,6.8164 6.60156,0 q 2.44141,0 3.53516,-0.83984 1.11328,-0.85938 1.11328,-2.55859 z m 1.60156,11.52343 q 0,-1.09375 -0.42969,-1.83593 -0.42968,-0.74219 -1.1914,-1.19141 -0.74219,-0.44922 -1.75781,-0.64453 -0.9961,-0.19531 -2.16797,-0.19531 l -7.30469,0 0,7.89062 7.51953,0 q 1.13281,0 2.10938,-0.17578 0.97656,-0.19531 1.67968,-0.64453 0.72266,-0.46875 1.13282,-1.25 0.41015,-0.78125 0.41015,-1.95313 z"
         style="fill:#999999"
         id="path4334" />
      <path
         d="m 200.86914,240.65147 0,-27.51953 5.76172,0 0,23.06641 14.76562,0 0,4.45312 -20.52734,0 z"
         style="fill:#999999"
         id="path4336" />
      <path
         d="m 225.32227,240.65147 0,-27.51953 21.64062,0 0,4.45313 -15.87891,0 0,6.91406 14.6875,0 0,4.45313 -14.6875,0 0,7.24609 16.67969,0 0,4.45312 -22.4414,0 z"
         style="fill:#999999"
         id="path4338" />
    </g>
    <rect
       id="rect3364-3"
       width="55"
       height="55"
       x="59.639893"
       y="111.4845"
       ry="5"
       style="display:inline;fill:#b3b3b3;fill-opacity:1;stroke:none;stroke-opacity:1"
       transform="matrix(0.96592583,-0.25881905,0.25881905,0.96592583,0,0)" />
    <g
       id="g4267"
       transform="matrix(0.96592583,0.25881905,-0.25881905,0.96592583,22.251324,39.632406)">
      <rect
         ry="5"
         y="-20.911037"
         x="102.5"
         height="80"
         width="70"
         id="rect4244"
         style="fill:#999999;fill-opacity:1;stroke:#ececec;stroke-width:4;stroke-miterlimit:4;stroke-dasharray:none;stroke-opacity:1" />
      <rect
         ry="2"
         y="-11.047346"
         x="113.5"
         height="48"
         width="48"
         id="rect4248"
         style="fill:#ececec;fill-opacity:1;stroke:none;stroke-width:4;stroke-miterlimit:4;stroke-dasharray:none;stroke-opacity:1" />
      <path
         sodipodi:nodetypes="ccccccc"
         inkscape:connector-curvature="0"
         id="path4170"
         d="m 116.52416,33.814505 0,-9.256235 12.83929,-12.839314 8.36048,8.360474 20.7519,-20.75189629 0,34.48697129 z"
         style="display:inline;fill:#999999;fill-opacity:1;fill-rule:evenodd;stroke:none;stroke-width:0;stroke-linecap:butt;stroke-linejoin:miter;stroke-miterlimit:4;stroke-dasharray:none;stroke-opacity:1" />
    </g>
  </g>
</svg>
